<svg width="250" height="250" viewBox="0 0 24 24" fill="none" xmlns="http://www.w3.org/2000/svg">
<rect width="24" height="24" fill="white"/> <!-- This provides a white background if the SVG is used standalone -->
<path d="M12.0001 2.0001C7.50012 2.0001 4.00012 5.5001 4.00012 10.0001C4.00012 14.5001 12.0001 21.0001 12.0001 21.0001C12.0001 21.0001 20.0001 14.5001 20.0001 10.0001C20.0001 5.5001 16.5001 2.0001 12.0001 2.0001Z" fill="#8BC34A"/> <!-- Apple Body (Primary Green) -->
<path d="M12.0001 2.0001C9.50012 2.0001 7.20012 3.5001 6.00012 6.0001C4.80012 3.50009 2.50012 2.0001 0.00012207V4.0001C2.00012 4.0001 4.50012 5.5001 6.00012 8.0001C7.50012 5.5001 10.0001 4.0001 12.0001 4.0001C14.5001 4.0001 16.8001 5.5001 18.0001 8.0001C19.2001 5.5001 21.5001 4.0001 24.0001 4.0001V2.0001C21.5001 2.0001 19.2001 3.50009 18.0001 6.0001C16.8001 3.5001 14.5001 2.0001 12.0001 2.0001Z" fill="#7CB342"/> <!-- Apple Leaf/Stem (Darker Green) -->
<path d="M10.0001 12.0001L15.0001 7.0001L17.0001 9.0001L10.0001 16.0001L7.00012 13.0001L9.00012 11.0001L10.0001 12.0001Z" fill="#FFFFFF"/> <!-- Checkmark (White) -->
</svg>